<svg width="71" height="34" viewBox="0 0 71 34" fill="none" xmlns="http://www.w3.org/2000/svg">
<g clip-path="url(#clip0)">
<path d="M63.47 14.38C67.441 14.38 70.66 11.1609 70.66 7.19C70.66 3.21907 67.441 0 63.47 0C59.4991 0 56.28 3.21907 56.28 7.19C56.28 11.1609 59.4991 14.38 63.47 14.38Z" fill="#CC06FC"/>
<path d="M8.65997 14.38C12.6309 14.38 15.85 11.1609 15.85 7.19C15.85 3.21907 12.6309 0 8.65997 0C4.68904 0 1.46997 3.21907 1.46997 7.19C1.46997 11.1609 4.68904 14.38 8.65997 14.38Z" fill="#FFA300"/>
<path d="M16.17 15.38C16.17 15.38 8.74001 13.62 3.38001 17.3C-1.97999 20.98 -0.299991 28.68 3.72001 31.03C7.74001 33.38 11.09 33.37 16.11 33.04C16.11 33.04 2.44001 24.08 16.17 15.38Z" fill="white"/>
<path d="M17.46 0.220013C17.46 0.220013 25.64 -1.13999 27.17 5.54001C27.24 5.86001 26.81 28.97 27.06 30.71C27.13 31.2 27.77 31.98 28.51 32.12C29 32.21 29.18 32.12 29.18 32.12C29.18 32.12 24.83 34.45 21.14 32.78C17.46 31.12 17.46 25.47 17.46 25.47V0.220013Z" fill="white"/>
<path d="M29.1599 0.789997C29.1599 0.789997 37.0799 -2.22 39.9599 4.22C40.0999 4.53 44.3099 27.96 44.9199 29.67C45.0899 30.15 45.8899 30.81 46.6599 30.8C47.1699 30.79 47.3299 30.67 47.3299 30.67C47.3299 30.67 43.4299 33.89 39.4099 32.95C35.3799 32.01 34.2499 26.3 34.2499 26.3L29.1599 0.789997Z" fill="white"/>
<path d="M43.77 0.789997C43.77 0.789997 51.69 -2.22 54.57 4.22C54.71 4.53 58.92 27.96 59.53 29.67C59.7 30.15 60.5 30.81 61.27 30.8C61.78 30.79 61.94 30.67 61.94 30.67C61.94 30.67 58.04 33.89 54.02 32.95C49.99 32.01 48.86 26.3 48.86 26.3L43.77 0.789997Z" fill="white"/>
</g>
<defs>
<clipPath id="clip0">
<rect width="70.66" height="33.38" fill="white"/>
</clipPath>
</defs>
</svg>
